# xmcd CD database file
#
# Track frame offsets:
#	150
#	21947
#	37410
#	55152
#
# Disc length: 1105 seconds
#
# Revision: 1
# Processed by: cddbd v1.5PL3 Copyright (c) Steve Scherf et al.
# Submitted via: CDex 1.50beta8
#
DISCID=33044f04
DTITLE=蜉蝣 - 過去形真実
DYEAR=2003
DGENRE=Rock
TTITLE0=過去形真実
TTITLE1=説教38.5℃
TTITLE2=過去形真実（リミックス）
TTITLE3=説教38.5℃（リミックス）
EXTD=YEAR: 2003
EXTT0=
EXTT1=
EXTT2=
EXTT3=
PLAYORDER=
